<?xml version="1.0" standalone="no"?>
<!DOCTYPE svg PUBLIC "-//W3C//DTD SVG 20010904//EN"
 "http://www.w3.org/TR/2001/REC-SVG-20010904/DTD/svg10.dtd">
<svg version="1.0" xmlns="http://www.w3.org/2000/svg"
 width="264.000000pt" height="264.000000pt" viewBox="0 0 264.000000 264.000000"
 preserveAspectRatio="xMidYMid meet">
<metadata>
Created by potrace 1.11, written by Peter Selinger 2001-2013
</metadata>
<g transform="translate(0.000000,264.000000) scale(0.100000,-0.100000)"
fill="#000000" stroke="none">
<path d="M0 1320 l0 -1320 690 0 690 0 -24 38 c-109 167 -186 302 -186 326 0
22 -27 31 -45 16 -24 -20 -28 10 -10 63 14 43 14 49 -5 99 -25 65 -25 78 -2
78 9 0 23 4 31 9 11 7 7 13 -18 25 -44 23 -43 58 3 80 32 15 37 15 78 -2 23
-11 60 -22 81 -25 60 -9 41 15 -29 36 -89 28 -114 39 -114 48 0 5 15 9 34 9
19 0 37 4 40 9 7 10 73 -1 134 -23 24 -9 40 -11 37 -6 -3 4 -29 16 -58 26 -61
20 -61 20 -53 33 4 6 21 4 49 -5 42 -15 94 -51 85 -59 -2 -3 18 -28 44 -56 37
-40 46 -54 36 -61 -9 -6 -6 -7 8 -4 14 5 28 -3 50 -26 28 -31 28 -32 2 -9 -37
32 -45 22 -12 -14 24 -26 45 -83 26 -71 -5 3 -8 -15 -6 -39 4 -49 -1 -55 -23
-27 -10 12 -13 13 -11 2 2 -8 12 -22 23 -32 19 -16 19 -17 2 -18 -10 0 -16 -4
-13 -9 3 -5 15 -7 25 -4 15 4 20 16 23 56 3 29 8 61 12 72 5 14 5 16 -2 7 -7
-11 -10 -11 -15 3 -4 9 -3 14 1 11 14 -8 29 8 56 61 14 28 44 67 67 85 37 29
40 36 35 66 -3 19 -19 53 -36 75 -79 107 -99 136 -158 230 -58 93 -69 127 -41
127 6 0 20 -10 30 -22 18 -21 19 -21 10 -2 -5 11 -23 34 -38 50 -53 54 -55 59
-34 82 11 14 16 31 13 47 -5 27 13 33 46 16 9 -5 25 -6 34 -2 16 5 16 9 4 32
-7 14 -12 33 -10 42 1 10 -7 22 -18 28 -28 15 -16 22 15 8 32 -15 57 1 57 36
0 12 7 28 15 35 8 7 15 20 15 29 0 10 3 12 8 5 4 -6 15 -13 24 -17 28 -10 31
27 8 73 -12 23 -17 39 -11 36 6 -4 19 -26 30 -50 10 -24 33 -57 51 -73 47 -41
151 -205 164 -258 10 -42 68 -189 77 -195 4 -3 11 -18 15 -34 5 -20 9 -24 15
-14 9 12 5 -44 -7 -101 -5 -21 -3 -23 10 -12 9 8 16 17 16 20 0 21 63 119 73
115 7 -2 25 -24 40 -49 16 -25 33 -42 38 -39 12 7 6 17 -56 92 -27 33 -54 60
-60 58 -5 -1 -18 -18 -27 -37 -9 -19 -17 -27 -18 -19 0 13 -1 13 -11 0 -7 -11
-8 -6 -4 19 5 20 3 31 -2 28 -9 -6 -46 103 -39 111 2 1 20 -22 41 -53 21 -30
40 -53 42 -51 3 2 15 24 27 48 25 47 89 88 138 88 21 0 31 7 38 25 5 13 23 39
40 56 16 18 30 37 30 43 0 32 -22 142 -30 150 -5 5 -6 22 -3 37 3 16 0 35 -7
44 -6 8 -9 18 -7 22 3 5 -12 29 -34 53 -21 25 -39 51 -39 59 0 8 -3 12 -6 8
-4 -3 -1 -21 5 -38 6 -18 9 -30 5 -27 -11 12 -93 161 -100 182 -4 11 -25 50
-48 86 -38 60 -41 71 -44 146 -2 45 1 112 7 149 11 75 33 106 105 152 33 22
48 25 91 20 63 -6 119 -34 161 -79 29 -30 32 -39 31 -93 0 -33 5 -72 11 -87
13 -30 18 -35 19 -15 6 77 4 97 -11 127 -13 27 0 17 64 -50 45 -47 92 -102
106 -122 13 -21 26 -38 29 -38 3 0 5 15 5 32 0 29 -17 50 -139 169 -173 171
-208 193 -305 191 -39 0 -91 -7 -115 -16 -24 -9 -54 -16 -68 -16 -31 0 -59
-15 -106 -56 -35 -32 -41 -34 -115 -34 -64 0 -87 -5 -130 -26 -51 -26 -52 -26
-103 -9 -42 14 -58 15 -92 6 -23 -7 -62 -13 -87 -14 l-45 -2 -6 165 c-3 91 -7
166 -8 168 0 1 -298 2 -661 2 l-660 0 0 -1320z m926 1014 c80 -23 114 -46 114
-76 0 -9 16 -20 40 -27 22 -6 39 -16 37 -22 -1 -6 9 -17 23 -26 20 -12 21 -12
8 0 -30 25 -20 25 30 1 38 -19 161 -48 245 -58 28 -4 45 -27 67 -89 25 -72 25
-85 -2 -89 -19 -2 -24 -11 -29 -48 -5 -37 -6 -39 -7 -13 -2 26 -5 31 -19 26
-10 -4 -14 -2 -10 4 14 22 -24 22 -57 -1 -26 -17 -32 -26 -25 -39 10 -16 7
-18 -54 -31 -23 -6 -26 -9 -17 -26 13 -25 13 -40 -1 -17 -11 18 -29 14 -29 -6
0 -7 4 -6 10 3 8 12 10 11 8 -5 -2 -34 2 -56 10 -51 4 2 8 -3 8 -13 0 -13 -6
-17 -21 -13 -25 7 -37 23 -25 37 5 5 4 32 -1 60 -15 82 -19 96 -29 90 -6 -3
-10 -1 -10 6 0 7 -9 2 -20 -11 -14 -16 -17 -26 -9 -30 6 -4 0 -9 -15 -12 -21
-4 -26 -1 -31 23 -10 43 3 85 30 99 14 7 27 21 31 32 6 22 44 24 44 3 0 -8 8
-15 18 -15 14 0 14 -2 3 -9 -8 -6 -24 -6 -38 0 -14 5 -23 5 -23 -1 0 -11 30
-20 77 -23 18 -1 33 -6 33 -10 0 -4 9 -3 20 3 19 10 25 4 21 -23 -2 -10 50 0
63 13 7 7 7 10 -1 10 -6 0 -22 18 -37 40 -15 23 -31 38 -36 35 -5 -3 -12 0
-16 6 -4 8 -3 9 4 5 17 -10 15 9 -2 23 -11 9 -15 9 -19 -1 -4 -8 -6 -7 -6 5
-1 18 -16 23 -25 8 -4 -5 0 -12 6 -14 7 -3 -1 -4 -18 -3 -17 2 -41 13 -53 25
-11 11 -29 21 -38 20 -11 0 -13 -3 -5 -6 6 -2 12 -11 12 -19 0 -8 4 -14 8 -14
5 0 17 -7 28 -15 17 -14 17 -14 -11 -3 -16 7 -32 15 -35 18 -13 14 -64 30 -94
30 -37 0 -98 -31 -146 -73 -16 -15 -32 -27 -35 -27 -3 0 -5 20 -5 45 0 40 -19
88 -41 105 -9 7 -46 68 -63 105 -16 34 -6 43 27 27 45 -21 57 -22 69 -2 7 11
19 20 28 20 29 0 -33 33 -64 34 -21 1 -32 7 -34 19 -4 21 4 19 134 -19z m-258
-51 c57 -5 82 -27 82 -73 0 -24 -37 -108 -61 -136 -15 -19 -29 -127 -17 -135
6 -4 7 -13 2 -22 -9 -16 -11 -17 -41 -17 -14 0 -15 -2 -5 -9 7 -4 24 -6 38 -3
29 5 33 -17 4 -25 -11 -3 -20 -12 -20 -20 0 -8 -4 -12 -9 -9 -5 3 -16 -12 -25
-34 -18 -45 -38 -58 -59 -39 -10 9 -12 23 -6 46 7 33 6 33 -25 30 -18 -2 -38
-7 -44 -11 -38 -23 -107 80 -152 225 -33 106 -33 109 25 147 50 33 89 47 157
58 36 6 36 7 22 29 l-14 22 47 -9 c27 -6 72 -12 101 -15z m264 -377 c8 -59 -2
-71 -70 -80 -32 -4 -48 -2 -59 9 -8 8 -20 15 -28 15 -18 0 -30 33 -13 39 7 2
25 17 40 33 15 16 31 27 35 25 5 -2 17 -1 28 4 44 18 59 7 67 -45z m48 22 c0
-10 3 -9 9 1 5 7 11 9 14 4 3 -4 -1 -17 -9 -27 -13 -19 -14 -19 -34 -1 -11 10
-17 22 -14 26 8 14 34 11 34 -3z m113 -34 c2 -15 1 -38 -3 -53 -7 -22 -11 -25
-10 -6 1 3 -6 13 -15 21 -16 16 -20 46 -8 57 14 15 31 6 36 -19z m104 -10 c-3
-3 -12 -4 -19 -1 -8 3 -5 6 6 6 11 1 17 -2 13 -5z m370 -90 c3 -9 0 -20 -7
-24 -7 -5 -11 -19 -8 -34 4 -21 3 -24 -8 -15 -8 7 -12 24 -9 43 2 17 4 34 4
39 2 13 22 7 28 -9z m-257 -36 c0 -4 -4 -8 -9 -8 -6 0 -12 4 -15 8 -3 5 1 9 9
9 8 0 15 -4 15 -9z m-60 -898 c0 -5 -2 -10 -4 -10 -3 0 -8 5 -11 10 -3 6 -1
10 4 10 6 0 11 -4 11 -10z m-40 -29 c0 -5 -11 -11 -25 -13 -24 -5 -32 2 -18
15 9 10 43 8 43 -2z m-655 -494 c27 0 34 -2 20 -7 -17 -6 -14 -9 18 -19 21 -7
36 -15 34 -17 -2 -2 -22 2 -45 10 -22 8 -61 18 -86 21 -26 4 -49 12 -53 18 -4
6 7 7 33 1 21 -4 57 -8 79 -7z m150 -27 c3 -5 1 -10 -4 -10 -6 0 -11 5 -11 10
0 6 2 10 4 10 3 0 8 -4 11 -10z m-5 -20 c20 -16 21 -19 5 -13 -32 10 -62 33
-45 33 8 0 26 -9 40 -20z m80 -26 c0 -2 -13 2 -30 11 -16 9 -30 18 -30 21 0 2
14 -2 30 -11 17 -9 30 -18 30 -21z"/>
<path d="M1235 1751 c-3 -5 -2 -12 3 -15 5 -3 9 1 9 9 0 17 -3 19 -12 6z"/>
<path d="M490 1906 c0 -17 14 -29 23 -20 8 8 -3 34 -14 34 -5 0 -9 -6 -9 -14z"/>
<path d="M2360 2345 c0 -8 4 -15 10 -15 5 0 7 7 4 15 -4 8 -8 15 -10 15 -2 0
-4 -7 -4 -15z"/>
<path d="M2246 2308 c-3 -13 -5 -32 -5 -43 1 -11 5 -2 10 19 10 42 6 62 -5 24z"/>
<path d="M2363 2247 c-7 -43 -13 -89 -13 -103 0 -14 -4 -33 -9 -42 -4 -9 -11
-30 -15 -47 l-6 -30 14 25 c24 44 47 156 44 216 l-3 59 -12 -78z"/>
<path d="M2231 2224 c0 -11 3 -14 6 -6 3 7 2 16 -1 19 -3 4 -6 -2 -5 -13z"/>
<path d="M2589 2087 c17 -30 28 -56 26 -59 -3 -3 1 -11 10 -18 29 -24 17 19
-21 76 -46 69 -54 70 -15 1z"/>
<path d="M2186 2104 c-15 -40 0 -265 19 -271 7 -2 7 31 -1 99 -7 57 -10 122
-7 146 6 42 0 55 -11 26z"/>
<path d="M2375 2090 c-4 -14 -18 -48 -31 -77 -31 -66 -30 -93 0 -33 12 25 33
63 46 84 14 22 19 37 13 33 -6 -4 -13 -1 -16 5 -2 7 -7 2 -12 -12z"/>
<path d="M2428 2021 c-40 -41 -68 -85 -68 -107 0 -3 27 29 61 71 33 42 59 78
57 80 -2 2 -25 -18 -50 -44z"/>
<path d="M2390 1820 c0 -5 -5 -10 -11 -10 -17 0 -39 -27 -39 -47 1 -15 5 -13
21 10 11 15 27 27 35 27 8 0 14 7 14 15 0 8 -4 15 -10 15 -5 0 -10 -4 -10 -10z"/>
<path d="M2490 1780 c-14 -4 -18 -9 -10 -9 10 -1 6 -7 -10 -16 -14 -8 -20 -14
-15 -15 6 0 24 9 40 20 39 26 52 25 61 -2 4 -15 1 -25 -12 -35 -11 -7 -26 -19
-35 -27 -9 -7 -25 -19 -35 -25 -17 -11 -16 -11 6 -5 14 3 36 17 51 30 14 13
31 24 38 24 8 0 10 7 6 20 -6 18 -4 18 25 9 36 -13 54 -3 25 14 -23 13 -28 14
-75 21 -19 3 -46 1 -60 -4z"/>
<path d="M2405 1760 c-3 -5 -4 -10 -1 -10 3 0 -6 -20 -20 -45 -23 -42 -23 -54
2 -37 16 11 45 90 34 97 -5 3 -11 1 -15 -5z"/>
<path d="M2590 1692 c0 -6 -15 -25 -32 -40 -74 -66 -102 -94 -78 -78 14 9 32
19 40 22 62 22 105 73 82 96 -9 9 -12 9 -12 0z"/>
<path d="M1667 1540 c10 -11 19 -20 21 -20 1 0 -2 9 -8 20 -6 11 -15 20 -20
20 -6 0 -2 -9 7 -20z"/>
<path d="M1704 1458 c3 -13 11 -49 17 -80 12 -60 35 -83 26 -25 -11 69 -29
127 -39 127 -6 0 -8 -10 -4 -22z"/>
<path d="M2426 1396 c-28 -37 -33 -52 -14 -40 8 5 9 0 6 -14 -8 -30 6 -36 27
-12 13 15 15 23 7 33 -8 10 -7 20 3 40 20 38 2 34 -29 -7z"/>
<path d="M2350 1301 c0 -7 7 -19 15 -27 8 -9 15 -21 15 -27 0 -8 -3 -8 -9 1
-6 10 -11 9 -22 -4 -9 -12 -10 -15 -1 -10 6 4 12 2 12 -3 0 -7 23 -11 55 -11
31 0 81 -9 112 -20 32 -11 65 -20 75 -20 14 0 18 -8 18 -41 0 -28 -4 -38 -12
-33 -8 5 -9 2 -5 -9 5 -12 1 -17 -13 -17 -11 0 -19 -5 -17 -11 3 -18 -65 -19
-92 -2 -21 13 -25 13 -39 -1 -9 -9 -11 -16 -5 -16 6 0 14 6 17 13 5 10 7 10
12 0 3 -7 11 -13 18 -13 7 0 20 -6 30 -13 17 -12 15 -16 -29 -45 -38 -25 -56
-31 -89 -28 -26 2 -53 -4 -73 -15 -18 -10 -33 -15 -33 -9 0 5 -9 8 -19 7 -11
0 -17 -5 -15 -9 8 -12 -9 -9 -29 6 -13 10 -15 15 -5 19 7 2 10 7 6 11 -3 4
-17 2 -30 -5 l-23 -12 28 -10 c23 -7 26 -12 16 -23 -9 -10 -9 -21 -2 -37 11
-23 48 -33 58 -16 3 5 -1 6 -9 3 -12 -5 -15 0 -14 20 1 14 7 27 13 28 15 2 29
5 35 8 3 2 24 3 48 4 38 2 41 1 27 -13 -13 -13 -17 -14 -24 -3 -6 10 -10 8
-14 -8 -4 -15 -11 -21 -21 -17 -8 3 -18 1 -22 -5 -5 -7 -2 -8 7 -4 8 4 1 -4
-16 -18 -28 -24 -61 -39 -217 -96 -32 -12 -58 -27 -58 -33 0 -7 -38 -34 -85
-61 -68 -38 -92 -47 -120 -44 -19 2 -35 3 -35 2 0 -1 7 -14 15 -30 14 -27 13
-28 -18 -48 -18 -11 -36 -21 -42 -21 -31 -6 -53 -18 -49 -29 2 -6 -5 -22 -16
-34 -11 -12 -16 -22 -11 -22 18 0 81 33 81 43 0 19 27 33 58 30 19 -2 64 -12
100 -23 37 -11 99 -21 137 -23 39 -1 73 -6 76 -11 8 -10 29 1 29 15 0 5 -6 9
-14 9 -13 0 -31 28 -23 37 6 5 76 -21 120 -45 l38 -20 -30 -15 c-26 -13 -31
-13 -31 -2 0 24 -25 6 -37 -25 -8 -21 -23 -35 -50 -46 -225 -89 -241 -98 -264
-139 -26 -47 -36 -55 -67 -55 -20 0 -21 2 -10 20 11 17 10 22 -2 30 -18 11
-24 2 -48 -78 -11 -32 -33 -80 -51 -105 l-32 -47 172 0 171 0 67 32 c36 17 92
51 124 75 46 36 57 50 57 73 0 16 6 33 13 37 6 4 25 26 42 48 53 71 119 136
159 157 34 17 50 19 123 13 l83 -7 0 406 c-1 309 -4 406 -13 406 -9 0 -9 2 0
8 6 4 -14 7 -45 7 -63 1 -198 29 -219 46 -9 9 -13 8 -13 0z"/>
<path d="M1592 1243 c23 -58 54 -129 83 -189 29 -59 31 -61 50 -48 13 10 16
17 9 22 -6 4 -14 14 -18 22 -18 39 -33 59 -39 53 -4 -3 -7 2 -7 13 0 18 -38
103 -51 114 -3 3 -8 13 -12 23 -3 9 -11 17 -16 17 -7 0 -7 -10 1 -27z"/>
<path d="M1750 1226 c0 -15 40 -49 48 -41 2 2 2 16 -2 30 -7 27 -46 36 -46 11z"/>
<path d="M1690 1220 c0 -5 5 -10 10 -10 6 0 10 5 10 10 0 6 -4 10 -10 10 -5 0
-10 -4 -10 -10z"/>
<path d="M2190 1189 c0 -17 27 -45 35 -37 3 3 -3 16 -14 29 -16 19 -20 20 -21
8z"/>
<path d="M2230 1133 c0 -4 5 -15 10 -23 8 -13 10 -13 10 2 0 9 -4 20 -10 23
-5 3 -10 3 -10 -2z"/>
<path d="M2403 1016 c2 -5 9 -12 17 -14 7 -3 10 0 6 6 -3 6 0 12 6 15 7 3 3 4
-10 4 -12 -1 -21 -6 -19 -11z"/>
<path d="M1872 728 c-16 -16 -15 -38 2 -38 17 0 30 30 18 42 -4 4 -13 3 -20
-4z"/>
<path d="M1450 590 c20 -13 40 -13 40 0 0 6 -12 10 -27 10 -22 0 -25 -2 -13
-10z"/>
<path d="M1285 550 c-4 -6 7 -10 27 -10 18 -1 44 -7 58 -15 43 -25 47 -16 5
10 -42 26 -80 32 -90 15z"/>
<path d="M1761 464 c0 -11 3 -14 6 -6 3 7 2 16 -1 19 -3 4 -6 -2 -5 -13z"/>
<path d="M1810 471 c0 -15 40 -33 57 -26 20 7 7 20 -29 29 -16 4 -28 2 -28 -3z"/>
<path d="M1437 359 c-46 -38 -77 -97 -76 -141 l1 -33 10 35 c26 90 41 113 103
151 17 11 23 19 15 19 -9 0 -32 -14 -53 -31z"/>
<path d="M2600 350 c-12 -8 -9 -10 13 -10 15 0 27 5 27 10 0 13 -20 13 -40 0z"/>
<path d="M1805 240 c-3 -6 1 -7 9 -4 18 7 21 14 7 14 -6 0 -13 -4 -16 -10z"/>
<path d="M1488 210 c-12 -40 -9 -189 3 -168 5 10 8 57 7 105 -2 58 -6 79 -10
63z"/>
<path d="M1425 161 c-21 -27 -32 -111 -15 -111 19 0 58 124 42 134 -4 2 -16
-8 -27 -23z"/>
<path d="M2383 118 c-23 -30 -24 -41 -2 -21 12 12 20 25 17 28 -3 3 -10 0 -15
-7z"/>
<path d="M1560 49 c-15 -54 -7 -60 13 -9 8 22 11 42 7 45 -5 3 -14 -13 -20
-36z"/>
<path d="M2367 23 c-13 -13 -7 -20 18 -20 20 0 23 2 14 13 -13 15 -22 17 -32
7z"/>
<path d="M2610 19 c0 -5 5 -7 10 -4 6 3 10 8 10 11 0 2 -4 4 -10 4 -5 0 -10
-5 -10 -11z"/>
</g>
</svg>
